<?xml version="1.0" encoding="utf-8"?>
<!-- Svg Vector Icons : http://www.sfont.cn -->
<!DOCTYPE svg PUBLIC "-//W3C//DTD SVG 1.1//EN" "http://www.w3.org/Graphics/SVG/1.1/DTD/svg11.dtd">
<svg version="1.1" xmlns="http://www.w3.org/2000/svg" xmlns:xlink="http://www.w3.org/1999/xlink" x="0px" y="0px" viewBox="0 0 1000 1000" enable-background="new 0 0 1000 1000" xml:space="preserve">
<metadata> Svg Vector Icons : http://www.sfont.cn </metadata>
<g><g><path d="M173.6,682.6h82.6c11,0,19.8-8.9,19.8-19.8c0-11-8.9-19.8-19.8-19.8h-62.8v-24c0-10.9-8.9-19.8-19.8-19.8h-51.2v-38c0-11-8.9-19.8-19.8-19.8H49.7V205.9H638v335.4h-52.9c-11,0-19.8,8.9-19.8,19.8v38H514c-11,0-19.8,8.9-19.8,19.8v24h-59.5c-11,0-19.8,8.9-19.8,19.8c0,10.9,8.9,19.8,19.8,19.8H514c11,0,19.8-8.9,19.8-19.8v-24h51.2c11,0,19.8-8.9,19.8-19.8v-38h52.9c11,0,19.8-8.9,19.8-19.8V186c0-10.9-8.8-19.8-19.8-19.8h-628c-11,0-19.8,8.9-19.8,19.8v375.1c0,10.9,8.9,19.8,19.8,19.8h52.9v38c0,10.9,8.9,19.8,19.8,19.8h51.2v24C153.8,673.7,162.6,682.6,173.6,682.6z"/><path d="M894.1,814V609.1c0-10.9-8.8-19.8-19.8-19.8c-11,0-19.8,8.9-19.8,19.8v185.1H363.6V603.3h71.1c11,0,19.8-8.9,19.8-19.8v-24h51.2c11,0,19.8-8.9,19.8-19.8v-38h52.9c11,0,19.8-8.9,19.8-19.8V265.4c0-10.9-8.8-19.8-19.8-19.8H109.1c-11,0-19.8,8.9-19.8,19.8v216.5c0,10.9,8.9,19.8,19.8,19.8H162v38c0,10.9,8.9,19.8,19.8,19.8h51.2v24c0,10.9,8.9,19.8,19.8,19.8H324V814c0,10.9,8.9,19.8,19.8,19.8h530.5C885.2,833.8,894.1,824.9,894.1,814z"/><path d="M948.4,174.5c-8.5-3.7-18.5-1.2-24,6.4L726.1,450.2c-4,5.4-5,12.5-2.6,18.7c2.4,6.3,7.8,10.9,14.3,12.4l34.3,7.5L749,619.7c-1.5,8.8,3,17.6,11.1,21.4c2.7,1.3,5.6,1.9,8.4,1.9c5.7,0,11.2-2.5,15.2-7l201.6-238.4c4.5-5.4,5.9-12.7,3.6-19.3c-2.3-6.6-7.9-11.5-14.7-12.9l-46.7-9.6l32.4-159.1C961.6,187.5,956.9,178.3,948.4,174.5z"/></g><g></g><g></g><g></g><g></g><g></g><g></g><g></g><g></g><g></g><g></g><g></g><g></g><g></g><g></g><g></g></g>
</svg>